<?xml version='1.0' encoding='UTF-8' standalone='no'?>
<svg xmlns:xlink="http://www.w3.org/1999/xlink" xmlns="http://www.w3.org/2000/svg" width="576pt" viewBox="0 0 576 432" height="432pt">
 <title>gl2ps_renderer figure</title>
 <desc>
Creator: GL2PS 1.4.0, (C) 1999-2017 C. Geuzaine
For: Octave
CreationDate: Sun Jan 30 22:17:38 2022
</desc>
 <defs/>
 <polygon points="0,0 576,0 576,432 0,432" fill="#ffffff"/>
 <g>
  <polygon points="0,432 576,432 576,0 0,0" fill="#ffffff" shape-rendering="crispEdges"/>
  <clipPath id="cp00576432">
   <polygon points="0,432 576,432 576,0 0,0"/>
  </clipPath>
  <g clip-path="url(#cp00576432)">
   <polygon points="74.8799,384.48 521.28,384.48 521.28,32.3999 74.8799,32.3999" fill="#ffffff" shape-rendering="crispEdges"/>
   <polyline stroke-width="0.5" points="74.8799,384.48 74.8799,32.3999" fill="none" stroke-opacity="0.15" stroke-dasharray="16,0" stroke="#262626" stroke-linejoin="miter" stroke-linecap="butt"/>
   <polyline stroke-width="0.5" points="138.651,384.48 138.651,32.3999" fill="none" stroke-opacity="0.15" stroke-dasharray="16,0" stroke="#262626" stroke-linejoin="miter" stroke-linecap="butt"/>
   <polyline stroke-width="0.5" points="202.423,384.48 202.423,32.3999" fill="none" stroke-opacity="0.15" stroke-dasharray="16,0" stroke="#262626" stroke-linejoin="miter" stroke-linecap="butt"/>
   <polyline stroke-width="0.5" points="266.194,384.48 266.194,32.3999" fill="none" stroke-opacity="0.15" stroke-dasharray="16,0" stroke="#262626" stroke-linejoin="miter" stroke-linecap="butt"/>
   <polyline stroke-width="0.5" points="329.966,384.48 329.966,32.3999" fill="none" stroke-opacity="0.15" stroke-dasharray="16,0" stroke="#262626" stroke-linejoin="miter" stroke-linecap="butt"/>
   <polyline stroke-width="0.5" points="393.737,384.48 393.737,32.3999" fill="none" stroke-opacity="0.15" stroke-dasharray="16,0" stroke="#262626" stroke-linejoin="miter" stroke-linecap="butt"/>
   <polyline stroke-width="0.5" points="457.509,384.48 457.509,32.3999" fill="none" stroke-opacity="0.15" stroke-dasharray="16,0" stroke="#262626" stroke-linejoin="miter" stroke-linecap="butt"/>
   <polyline stroke-width="0.5" points="521.28,384.48 521.28,32.3999" fill="none" stroke-opacity="0.15" stroke-dasharray="16,0" stroke="#262626" stroke-linejoin="miter" stroke-linecap="butt"/>
   <polyline stroke-width="0.5" points="74.8799,384.48 74.8799,380.015" fill="none" stroke="#262626" stroke-linejoin="miter" stroke-linecap="butt"/>
   <polyline stroke-width="0.5" points="74.8799,32.3999 74.8799,36.8652" fill="none" stroke="#262626" stroke-linejoin="miter" stroke-linecap="butt"/>
   <polyline stroke-width="0.5" points="138.651,384.48 138.651,380.015" fill="none" stroke="#262626" stroke-linejoin="miter" stroke-linecap="butt"/>
   <polyline stroke-width="0.5" points="138.651,32.3999 138.651,36.8652" fill="none" stroke="#262626" stroke-linejoin="miter" stroke-linecap="butt"/>
   <polyline stroke-width="0.5" points="202.423,384.48 202.423,380.015" fill="none" stroke="#262626" stroke-linejoin="miter" stroke-linecap="butt"/>
   <polyline stroke-width="0.5" points="202.423,32.3999 202.423,36.8652" fill="none" stroke="#262626" stroke-linejoin="miter" stroke-linecap="butt"/>
   <polyline stroke-width="0.5" points="266.194,384.48 266.194,380.015" fill="none" stroke="#262626" stroke-linejoin="miter" stroke-linecap="butt"/>
   <polyline stroke-width="0.5" points="266.194,32.3999 266.194,36.8652" fill="none" stroke="#262626" stroke-linejoin="miter" stroke-linecap="butt"/>
   <polyline stroke-width="0.5" points="329.966,384.48 329.966,380.015" fill="none" stroke="#262626" stroke-linejoin="miter" stroke-linecap="butt"/>
   <polyline stroke-width="0.5" points="329.966,32.3999 329.966,36.8652" fill="none" stroke="#262626" stroke-linejoin="miter" stroke-linecap="butt"/>
   <polyline stroke-width="0.5" points="393.737,384.48 393.737,380.015" fill="none" stroke="#262626" stroke-linejoin="miter" stroke-linecap="butt"/>
   <polyline stroke-width="0.5" points="393.737,32.3999 393.737,36.8652" fill="none" stroke="#262626" stroke-linejoin="miter" stroke-linecap="butt"/>
   <polyline stroke-width="0.5" points="457.509,384.48 457.509,380.015" fill="none" stroke="#262626" stroke-linejoin="miter" stroke-linecap="butt"/>
   <polyline stroke-width="0.5" points="457.509,32.3999 457.509,36.8652" fill="none" stroke="#262626" stroke-linejoin="miter" stroke-linecap="butt"/>
   <polyline stroke-width="0.5" points="521.28,384.48 521.28,380.015" fill="none" stroke="#262626" stroke-linejoin="miter" stroke-linecap="butt"/>
   <polyline stroke-width="0.5" points="521.28,32.3999 521.28,36.8652" fill="none" stroke="#262626" stroke-linejoin="miter" stroke-linecap="butt"/>
   <text font-family="FreeSans" font-weight="normal" font-size="10" font-style="normal" xml:space="preserve" transform="translate(70.38,399.982) rotate(-0,4.5,-8)">
    <tspan fill="rgb(38,38,38)" y="-0" x="0 3 ">-3</tspan>
   </text>
   <text font-family="FreeSans" font-weight="normal" font-size="10" font-style="normal" xml:space="preserve" transform="translate(134.151,399.982) rotate(-0,4.5,-8)">
    <tspan fill="rgb(38,38,38)" y="-0" x="0 3 ">-2</tspan>
   </text>
   <text font-family="FreeSans" font-weight="normal" font-size="10" font-style="normal" xml:space="preserve" transform="translate(197.923,399.982) rotate(-0,4.5,-8)">
    <tspan fill="rgb(38,38,38)" y="-0" x="0 3 ">-1</tspan>
   </text>
   <text font-family="FreeSans" font-weight="normal" font-size="10" font-style="normal" xml:space="preserve" transform="translate(263.194,399.982) rotate(-0,3,-8)">
    <tspan fill="rgb(38,38,38)" y="-0" x="0 ">0</tspan>
   </text>
   <text font-family="FreeSans" font-weight="normal" font-size="10" font-style="normal" xml:space="preserve" transform="translate(326.966,399.982) rotate(-0,3,-8)">
    <tspan fill="rgb(38,38,38)" y="-0" x="0 ">1</tspan>
   </text>
   <text font-family="FreeSans" font-weight="normal" font-size="10" font-style="normal" xml:space="preserve" transform="translate(390.737,399.982) rotate(-0,3,-8)">
    <tspan fill="rgb(38,38,38)" y="-0" x="0 ">2</tspan>
   </text>
   <text font-family="FreeSans" font-weight="normal" font-size="10" font-style="normal" xml:space="preserve" transform="translate(454.509,399.982) rotate(-0,3,-8)">
    <tspan fill="rgb(38,38,38)" y="-0" x="0 ">3</tspan>
   </text>
   <text font-family="FreeSans" font-weight="normal" font-size="10" font-style="normal" xml:space="preserve" transform="translate(518.28,399.982) rotate(-0,3,-8)">
    <tspan fill="rgb(38,38,38)" y="-0" x="0 ">4</tspan>
   </text>
   <polyline stroke-width="0.5" points="74.8799,384.48 521.28,384.48" fill="none" stroke-opacity="0.15" stroke-dasharray="16,0" stroke="#262626" stroke-linejoin="miter" stroke-linecap="butt"/>
   <polyline stroke-width="0.5" points="74.8799,325.8 521.28,325.8" fill="none" stroke-opacity="0.15" stroke-dasharray="16,0" stroke="#262626" stroke-linejoin="miter" stroke-linecap="butt"/>
   <polyline stroke-width="0.5" points="74.8799,267.12 521.28,267.12" fill="none" stroke-opacity="0.15" stroke-dasharray="16,0" stroke="#262626" stroke-linejoin="miter" stroke-linecap="butt"/>
   <polyline stroke-width="0.5" points="74.8799,208.44 521.28,208.44" fill="none" stroke-opacity="0.15" stroke-dasharray="16,0" stroke="#262626" stroke-linejoin="miter" stroke-linecap="butt"/>
   <polyline stroke-width="0.5" points="74.8799,149.76 521.28,149.76" fill="none" stroke-opacity="0.15" stroke-dasharray="16,0" stroke="#262626" stroke-linejoin="miter" stroke-linecap="butt"/>
   <polyline stroke-width="0.5" points="74.8799,91.0801 521.28,91.0801" fill="none" stroke-opacity="0.15" stroke-dasharray="16,0" stroke="#262626" stroke-linejoin="miter" stroke-linecap="butt"/>
   <polyline stroke-width="0.5" points="74.8799,32.3999 521.28,32.3999" fill="none" stroke-opacity="0.15" stroke-dasharray="16,0" stroke="#262626" stroke-linejoin="miter" stroke-linecap="butt"/>
   <polyline stroke-width="0.5" points="74.8799,384.48 79.3481,384.48" fill="none" stroke="#262626" stroke-linejoin="miter" stroke-linecap="butt"/>
   <polyline stroke-width="0.5" points="521.28,384.48 516.812,384.48" fill="none" stroke="#262626" stroke-linejoin="miter" stroke-linecap="butt"/>
   <polyline stroke-width="0.5" points="74.8799,325.8 79.3481,325.8" fill="none" stroke="#262626" stroke-linejoin="miter" stroke-linecap="butt"/>
   <polyline stroke-width="0.5" points="521.28,325.8 516.812,325.8" fill="none" stroke="#262626" stroke-linejoin="miter" stroke-linecap="butt"/>
   <polyline stroke-width="0.5" points="74.8799,267.12 79.3481,267.12" fill="none" stroke="#262626" stroke-linejoin="miter" stroke-linecap="butt"/>
   <polyline stroke-width="0.5" points="521.28,267.12 516.812,267.12" fill="none" stroke="#262626" stroke-linejoin="miter" stroke-linecap="butt"/>
   <polyline stroke-width="0.5" points="74.8799,208.44 79.3481,208.44" fill="none" stroke="#262626" stroke-linejoin="miter" stroke-linecap="butt"/>
   <polyline stroke-width="0.5" points="521.28,208.44 516.812,208.44" fill="none" stroke="#262626" stroke-linejoin="miter" stroke-linecap="butt"/>
   <polyline stroke-width="0.5" points="74.8799,149.76 79.3481,149.76" fill="none" stroke="#262626" stroke-linejoin="miter" stroke-linecap="butt"/>
   <polyline stroke-width="0.5" points="521.28,149.76 516.812,149.76" fill="none" stroke="#262626" stroke-linejoin="miter" stroke-linecap="butt"/>
   <polyline stroke-width="0.5" points="74.8799,91.0801 79.3481,91.0801" fill="none" stroke="#262626" stroke-linejoin="miter" stroke-linecap="butt"/>
   <polyline stroke-width="0.5" points="521.28,91.0801 516.812,91.0801" fill="none" stroke="#262626" stroke-linejoin="miter" stroke-linecap="butt"/>
   <polyline stroke-width="0.5" points="74.8799,32.3999 79.3481,32.3999" fill="none" stroke="#262626" stroke-linejoin="miter" stroke-linecap="butt"/>
   <polyline stroke-width="0.5" points="521.28,32.3999 516.812,32.3999" fill="none" stroke="#262626" stroke-linejoin="miter" stroke-linecap="butt"/>
   <text font-family="FreeSans" font-weight="normal" font-size="10" font-style="normal" xml:space="preserve" transform="translate(60.8755,388.48) rotate(-0,9,-4)">
    <tspan fill="rgb(38,38,38)" y="-0" x="0 3 ">-6</tspan>
   </text>
   <text font-family="FreeSans" font-weight="normal" font-size="10" font-style="normal" xml:space="preserve" transform="translate(60.8755,329.8) rotate(-0,9,-4)">
    <tspan fill="rgb(38,38,38)" y="-0" x="0 3 ">-4</tspan>
   </text>
   <text font-family="FreeSans" font-weight="normal" font-size="10" font-style="normal" xml:space="preserve" transform="translate(60.8755,271.12) rotate(-0,9,-4)">
    <tspan fill="rgb(38,38,38)" y="-0" x="0 3 ">-2</tspan>
   </text>
   <text font-family="FreeSans" font-weight="normal" font-size="10" font-style="normal" xml:space="preserve" transform="translate(63.8755,212.44) rotate(-0,6,-4)">
    <tspan fill="rgb(38,38,38)" y="-0" x="0 ">0</tspan>
   </text>
   <text font-family="FreeSans" font-weight="normal" font-size="10" font-style="normal" xml:space="preserve" transform="translate(63.8755,153.76) rotate(-0,6,-4)">
    <tspan fill="rgb(38,38,38)" y="-0" x="0 ">2</tspan>
   </text>
   <text font-family="FreeSans" font-weight="normal" font-size="10" font-style="normal" xml:space="preserve" transform="translate(63.8755,95.08) rotate(-0,6,-4)">
    <tspan fill="rgb(38,38,38)" y="-0" x="0 ">4</tspan>
   </text>
   <text font-family="FreeSans" font-weight="normal" font-size="10" font-style="normal" xml:space="preserve" transform="translate(63.8755,36.4) rotate(-0,6,-4)">
    <tspan fill="rgb(38,38,38)" y="-0" x="0 ">6</tspan>
   </text>
   <polyline stroke-width="0.5" points="74.8799,384.48 521.28,384.48" fill="none" stroke-dasharray="16,0" stroke="#262626" stroke-linejoin="miter" stroke-linecap="square"/>
   <polyline stroke-width="0.5" points="74.8799,32.3999 521.28,32.3999" fill="none" stroke-dasharray="16,0" stroke="#262626" stroke-linejoin="miter" stroke-linecap="square"/>
   <polyline stroke-width="0.5" points="74.8799,384.48 74.8799,32.3999" fill="none" stroke-dasharray="16,0" stroke="#262626" stroke-linejoin="miter" stroke-linecap="square"/>
   <polyline stroke-width="0.5" points="521.28,384.48 521.28,32.3999" fill="none" stroke-dasharray="16,0" stroke="#262626" stroke-linejoin="miter" stroke-linecap="square"/>
   <text font-family="FreeSans" font-weight="bold" font-size="11" font-style="normal" xml:space="preserve" transform="translate(270.58,22.4) rotate(-0,27.5,0)">
    <tspan fill="rgb(0,0,0)" y="-3" x="0 6 12 18 25 31 37 43 49 ">secp256k1</tspan>
   </text>
   <polyline stroke-width="0.5" points="144.204,208.44 144.842,198.744 145.479,194.764 146.117,191.734 146.755,189.201 147.393,186.986 148.03,185 148.668,183.189 149.306,181.517 149.943,179.959 150.581,178.499 151.219,177.121 151.856,175.815 152.494,174.574 153.132,173.389 153.77,172.256 154.407,171.169 155.045,170.125 155.683,169.121 156.32,168.152 156.958,167.217 157.596,166.313 158.233,165.439 158.872,164.592 159.509,163.77 160.147,162.973 160.785,162.199 161.422,161.447 162.06,160.715 162.698,160.003 163.335,159.311 163.973,158.636 164.611,157.978 165.249,157.337 165.886,156.712 166.524,156.102 167.162,155.506 167.799,154.925 168.437,154.357 169.075,153.803 169.712,153.261 170.35,152.731 170.988,152.213 171.625,151.708 172.263,151.212 172.901,150.729 173.539,150.255 174.176,149.791 174.814,149.338 175.452,148.894 176.09,148.459 176.728,148.034 177.365,147.618 178.003,147.21 178.641,146.812 179.278,146.42 179.916,146.038 180.554,145.663 181.191,145.296 181.829,144.936 182.467,144.584 183.104,144.239 183.742,143.901 184.38,143.57 185.018,143.246 185.655,142.928 186.293,142.617 186.931,142.312 187.568,142.014 188.206,141.721 188.844,141.435 189.481,141.154 190.119,140.879 190.757,140.61 191.395,140.346 192.033,140.088 192.67,139.835 193.308,139.588 193.946,139.345 194.583,139.108 195.221,138.875 195.859,138.648 196.497,138.426 197.134,138.208 197.772,137.994 198.41,137.786 199.047,137.582 199.685,137.381 200.323,137.186 200.96,136.995 201.598,136.808 202.236,136.625 202.874,136.446 203.511,136.271 204.149,136.1 204.787,135.933 205.424,135.77 206.062,135.61 206.7,135.455 207.337,135.302 207.976,135.154 208.613,135.009 209.251,134.867 209.889,134.729 210.526,134.594 211.164,134.462 211.802,134.334 212.439,134.209 213.077,134.087 213.715,133.968 214.353,133.852 214.99,133.739 215.628,133.629 216.266,133.522 216.903,133.417 217.541,133.316 218.179,133.218 218.816,133.122 219.454,133.028 220.092,132.938 220.729,132.85 221.367,132.764 222.005,132.681 222.643,132.6 223.28,132.522 223.918,132.446 224.556,132.373 225.194,132.301 225.832,132.232 226.469,132.166 227.107,132.101 227.745,132.039 228.382,131.978 229.02,131.92 229.658,131.864 230.295,131.809 230.933,131.757 231.571,131.706 232.208,131.658 232.846,131.611 233.484,131.565 234.122,131.522 234.759,131.48 235.397,131.441 236.035,131.402 236.672,131.366 237.31,131.331 237.948,131.297 238.585,131.265 239.223,131.234 239.861,131.205 240.499,131.177 241.137,131.151 241.774,131.125 242.412,131.102 243.05,131.079 243.688,131.058 244.325,131.038 244.963,131.019 245.601,131 246.238,130.984 246.876,130.968 247.514,130.953 248.151,130.939 248.789,130.926 249.427,130.915 250.064,130.903 250.702,130.893 251.34,130.884 251.978,130.875 252.615,130.867 253.253,130.86 253.891,130.854 254.528,130.848 255.166,130.842 255.804,130.838 256.441,130.833 257.08,130.83 257.717,130.827 258.355,130.824 258.993,130.822 259.63,130.82 260.268,130.818 260.906,130.817 261.543,130.816 262.181,130.815 262.819,130.814 263.457,130.814 264.094,130.814 264.732,130.814 265.37,130.813 266.007,130.813 266.645,130.813 267.283,130.813 267.92,130.813 268.558,130.813 269.196,130.813 269.833,130.812 270.471,130.812 271.109,130.811 271.747,130.81 272.384,130.809 273.022,130.807 273.66,130.805 274.298,130.802 274.936,130.799 275.573,130.796 276.211,130.792 276.849,130.788 277.486,130.783 278.124,130.777 278.762,130.771 279.399,130.765 280.037,130.757 280.675,130.749 281.312,130.74 281.95,130.73 282.588,130.72 283.226,130.708 283.863,130.696 284.501,130.683 285.139,130.668 285.776,130.653 286.414,130.637 287.052,130.62 287.689,130.602 288.327,130.582 288.965,130.562 289.603,130.54 290.241,130.517 290.878,130.493 291.516,130.467 292.154,130.44 292.792,130.413 293.429,130.383 294.067,130.352 294.705,130.32 295.342,130.286 295.98,130.251 296.618,130.214 297.255,130.176 297.893,130.136 298.531,130.094 299.168,130.051 299.806,130.006 300.444,129.959 301.082,129.911 301.719,129.861 302.357,129.809 302.995,129.755 303.632,129.7 304.27,129.642 304.908,129.583 305.545,129.521 306.184,129.458 306.821,129.393 307.459,129.326 308.097,129.256 308.734,129.185 309.372,129.111 310.01,129.036 310.647,128.958 311.285,128.878 311.923,128.795 312.561,128.711 313.198,128.624 313.836,128.535 314.474,128.444 315.111,128.35 315.749,128.254 316.387,128.156 317.024,128.055 317.662,127.952 318.3,127.846 318.938,127.738 319.575,127.627 320.213,127.514 320.851,127.398 321.488,127.28 322.126,127.159 322.764,127.035 323.402,126.909 324.04,126.78 324.677,126.649 325.315,126.515 325.953,126.378 326.59,126.238 327.228,126.096 327.866,125.951 328.503,125.803 329.141,125.653 329.779,125.5 330.417,125.343 331.054,125.184 331.692,125.022 332.33,124.857 332.967,124.69 333.605,124.52 334.243,124.346 334.88,124.17 335.518,123.991 336.156,123.809 336.793,123.624 337.431,123.436 338.069,123.244 338.707,123.05 339.345,122.854 339.982,122.653 340.62,122.45 341.258,122.244 341.896,122.035 342.533,121.823 343.171,121.608 343.809,121.39 344.446,121.168 345.084,120.944 345.722,120.717 346.359,120.486 346.997,120.253 347.635,120.016 348.272,119.776 348.91,119.534 349.548,119.288 350.186,119.039 350.823,118.787 351.461,118.531 352.099,118.273 352.736,118.012 353.374,117.747 354.012,117.479 354.649,117.209 355.287,116.935 355.925,116.658 356.563,116.378 357.201,116.095 357.838,115.808 358.476,115.519 359.114,115.227 359.751,114.931 360.389,114.632 361.027,114.33 361.665,114.025 362.302,113.717 362.94,113.406 363.578,113.092 364.215,112.774 364.853,112.454 365.491,112.13 366.128,111.804 366.766,111.474 367.404,111.141 368.042,110.806 368.679,110.467 369.317,110.125 369.955,109.78 370.592,109.432 371.23,109.081 371.868,108.727 372.506,108.37 373.144,108.009 373.781,107.646 374.419,107.28 375.057,106.911 375.694,106.539 376.332,106.164 376.97,105.786 377.607,105.405 378.245,105.021 378.883,104.634 379.521,104.244 380.158,103.851 380.796,103.456 381.434,103.057 382.071,102.655 382.709,102.251 383.347,101.843 383.984,101.433 384.622,101.02 385.26,100.604 385.897,100.185 386.535,99.7637 387.173,99.3389 387.811,98.9116 388.449,98.4814 389.086,98.0483 389.724,97.6128 390.362,97.1743 391,96.7329 391.637,96.2886 392.275,95.8418 392.913,95.3921 393.55,94.9399 394.188,94.4849 394.826,94.0269 395.463,93.5664 396.101,93.103 396.739,92.6372 397.376,92.1685 398.014,91.6973 398.652,91.2236 399.29,90.7471 399.927,90.2676 400.565,89.7856 401.203,89.3013 401.84,88.8145 402.478,88.3247 403.116,87.8325 403.753,87.3374 404.391,86.8398 405.029,86.3403 405.667,85.8374 406.305,85.3325 406.942,84.8252 407.58,84.3149 408.218,83.8022 408.855,83.2871 409.493,82.7695 410.131,82.2495 410.769,81.7271 411.406,81.2021 412.044,80.6748 412.682,80.145 413.319,79.6128 413.957,79.0781 414.595,78.541 415.232,78.0015 415.87,77.4595 416.508,76.915 417.146,76.3687 417.783,75.8193 418.421,75.2681 419.059,74.7144 419.696,74.1587 420.334,73.6001 420.972,73.0396 421.61,72.4766 422.248,71.9116 422.885,71.3442 423.523,70.7744 424.161,70.2021 424.798,69.6279 425.436,69.0518 426.074,68.4727 426.711,67.8916 427.349,67.3086 427.987,66.7231 428.625,66.1357 429.262,65.5459 429.9,64.9541 430.538,64.3599 431.175,63.7637 431.813,63.165 432.451,62.5645 433.088,61.9619 433.726,61.3569 434.364,60.75 435.001,60.1411 435.639,59.5298 436.277,58.9165 436.915,58.3013 437.553,57.6841 438.19,57.0645 438.828,56.4429 439.466,55.8193 440.104,55.1938 440.741,54.5659 441.379,53.9365 442.017,53.3047 442.654,52.6709 443.292,52.0352 443.93,51.3975 444.567,50.7578 445.205,50.1162 445.843,49.4727 446.48,48.8271 447.118,48.1797 447.756,47.5303 448.394,46.8784 449.031,46.2251 449.669,45.5698 450.307,44.9126 450.944,44.2534 451.582,43.5928 452.22,42.9297 452.857,42.2646 453.495,41.5981 454.133,40.9297 454.771,40.2593 455.409,39.5869 456.046,38.9126 456.684,38.2368 457.322,37.5591 457.959,36.8794 458.597,36.1978 459.235,35.5146 459.873,34.8291 460.51,34.1426 461.148,33.4536 461.786,32.7632 462.423,32.0708 462.444,32.0479" fill="none" stroke-dasharray="4,1,2,1,4,1,2,1" stroke="#0000ff" stroke-linejoin="round" stroke-linecap="butt"/>
   <polyline stroke-width="0.5" points="144.204,208.44 144.842,218.136 145.479,222.116 146.117,225.146 146.755,227.68 147.393,229.894 148.03,231.879 148.668,233.691 149.306,235.363 149.943,236.92 150.581,238.381 151.219,239.759 151.856,241.065 152.494,242.306 153.132,243.491 153.77,244.624 154.407,245.71 155.045,246.754 155.683,247.759 156.32,248.728 156.958,249.663 157.596,250.566 158.233,251.441 158.872,252.289 159.509,253.11 160.147,253.907 160.785,254.681 161.422,255.433 162.06,256.165 162.698,256.876 163.335,257.569 163.973,258.244 164.611,258.902 165.249,259.543 165.886,260.168 166.524,260.778 167.162,261.374 167.799,261.955 168.437,262.523 169.075,263.077 169.712,263.619 170.35,264.149 170.988,264.667 171.625,265.172 172.263,265.667 172.901,266.152 173.539,266.625 174.176,267.089 174.814,267.542 175.452,267.986 176.09,268.42 176.728,268.846 177.365,269.262 178.003,269.669 178.641,270.069 179.278,270.459 179.916,270.842 180.554,271.217 181.191,271.584 181.829,271.944 182.467,272.296 183.104,272.641 183.742,272.979 184.38,273.31 185.018,273.634 185.655,273.952 186.293,274.263 186.931,274.568 187.568,274.866 188.206,275.159 188.844,275.445 189.481,275.726 190.119,276.001 190.757,276.27 191.395,276.534 192.033,276.792 192.67,277.044 193.308,277.292 193.946,277.535 194.583,277.772 195.221,278.004 195.859,278.232 196.497,278.455 197.134,278.672 197.772,278.886 198.41,279.094 199.047,279.299 199.685,279.499 200.323,279.694 200.96,279.885 201.598,280.072 202.236,280.255 202.874,280.434 203.511,280.609 204.149,280.78 204.787,280.947 205.424,281.11 206.062,281.27 206.7,281.425 207.337,281.578 207.976,281.726 208.613,281.871 209.251,282.013 209.889,282.151 210.526,282.286 211.164,282.417 211.802,282.546 212.439,282.671 213.077,282.793 213.715,282.912 214.353,283.028 214.99,283.141 215.628,283.251 216.266,283.358 216.903,283.462 217.541,283.564 218.179,283.663 218.816,283.758 219.454,283.852 220.092,283.942 220.729,284.03 221.367,284.116 222.005,284.199 222.643,284.28 223.28,284.358 223.918,284.434 224.556,284.507 225.194,284.579 225.832,284.647 226.469,284.714 227.107,284.779 227.745,284.841 228.382,284.902 229.02,284.96 229.658,285.017 230.295,285.071 230.933,285.123 231.571,285.174 232.208,285.223 232.846,285.27 233.484,285.314 234.122,285.358 234.759,285.399 235.397,285.439 236.035,285.478 236.672,285.514 237.31,285.549 237.948,285.583 238.585,285.615 239.223,285.646 239.861,285.675 240.499,285.703 241.137,285.729 241.774,285.754 242.412,285.778 243.05,285.801 243.688,285.822 244.325,285.842 244.963,285.861 245.601,285.879 246.238,285.896 246.876,285.912 247.514,285.927 248.151,285.94 248.789,285.954 249.427,285.965 250.064,285.977 250.702,285.987 251.34,285.996 251.978,286.005 252.615,286.013 253.253,286.02 253.891,286.026 254.528,286.032 255.166,286.038 255.804,286.042 256.441,286.046 257.08,286.05 257.717,286.053 258.355,286.056 258.993,286.059 259.63,286.061 260.268,286.062 260.906,286.063 261.543,286.064 262.181,286.065 262.819,286.065 263.457,286.066 264.094,286.066 264.732,286.066 265.37,286.066 266.007,286.066 266.645,286.066 267.283,286.066 267.92,286.066 268.558,286.066 269.196,286.067 269.833,286.067 270.471,286.068 271.109,286.069 271.747,286.07 272.384,286.071 273.022,286.073 273.66,286.075 274.298,286.078 274.936,286.081 275.573,286.084 276.211,286.088 276.849,286.092 277.486,286.097 278.124,286.103 278.762,286.109 279.399,286.116 280.037,286.123 280.675,286.131 281.312,286.14 281.95,286.15 282.588,286.161 283.226,286.172 283.863,286.184 284.501,286.197 285.139,286.211 285.776,286.227 286.414,286.243 287.052,286.26 287.689,286.278 288.327,286.298 288.965,286.318 289.603,286.34 290.241,286.363 290.878,286.387 291.516,286.413 292.154,286.439 292.792,286.468 293.429,286.497 294.067,286.528 294.705,286.56 295.342,286.594 295.98,286.629 296.618,286.666 297.255,286.705 297.893,286.744 298.531,286.786 299.168,286.829 299.806,286.874 300.444,286.92 301.082,286.969 301.719,287.019 302.357,287.071 302.995,287.125 303.632,287.18 304.27,287.238 304.908,287.297 305.545,287.358 306.184,287.422 306.821,287.487 307.459,287.554 308.097,287.624 308.734,287.695 309.372,287.769 310.01,287.844 310.647,287.922 311.285,288.002 311.923,288.084 312.561,288.169 313.198,288.256 313.836,288.345 314.474,288.436 315.111,288.53 315.749,288.626 316.387,288.724 317.024,288.825 317.662,288.928 318.3,289.034 318.938,289.143 319.575,289.253 320.213,289.366 320.851,289.482 321.488,289.601 322.126,289.721 322.764,289.845 323.402,289.971 324.04,290.1 324.677,290.231 325.315,290.365 325.953,290.502 326.59,290.642 327.228,290.784 327.866,290.929 328.503,291.077 329.141,291.227 329.779,291.38 330.417,291.537 331.054,291.696 331.692,291.857 332.33,292.022 332.967,292.19 333.605,292.36 334.243,292.534 334.88,292.71 335.518,292.889 336.156,293.071 336.793,293.257 337.431,293.445 338.069,293.636 338.707,293.83 339.345,294.027 339.982,294.227 340.62,294.43 341.258,294.636 341.896,294.845 342.533,295.057 343.171,295.272 343.809,295.49 344.446,295.711 345.084,295.936 345.722,296.163 346.359,296.394 346.997,296.627 347.635,296.864 348.272,297.104 348.91,297.346 349.548,297.592 350.186,297.841 350.823,298.093 351.461,298.349 352.099,298.607 352.736,298.868 353.374,299.133 354.012,299.4 354.649,299.671 355.287,299.945 355.925,300.222 356.563,300.502 357.201,300.785 357.838,301.072 358.476,301.361 359.114,301.654 359.751,301.949 360.389,302.248 361.027,302.55 361.665,302.855 362.302,303.163 362.94,303.474 363.578,303.789 364.215,304.106 364.853,304.426 365.491,304.75 366.128,305.076 366.766,305.406 367.404,305.739 368.042,306.075 368.679,306.414 369.317,306.755 369.955,307.1 370.592,307.448 371.23,307.799 371.868,308.153 372.506,308.51 373.144,308.871 373.781,309.233 374.419,309.6 375.057,309.969 375.694,310.341 376.332,310.716 376.97,311.094 377.607,311.475 378.245,311.859 378.883,312.246 379.521,312.636 380.158,313.029 380.796,313.425 381.434,313.823 382.071,314.225 382.709,314.629 383.347,315.037 383.984,315.447 384.622,315.86 385.26,316.276 385.897,316.695 386.535,317.117 387.173,317.541 387.811,317.968 388.449,318.398 389.086,318.832 389.724,319.267 390.362,319.706 391,320.147 391.637,320.591 392.275,321.038 392.913,321.488 393.55,321.94 394.188,322.396 394.826,322.853 395.463,323.313 396.101,323.777 396.739,324.243 397.376,324.711 398.014,325.183 398.652,325.657 399.29,326.133 399.927,326.612 400.565,327.094 401.203,327.579 401.84,328.066 402.478,328.556 403.116,329.048 403.753,329.542 404.391,330.04 405.029,330.54 405.667,331.042 406.305,331.547 406.942,332.055 407.58,332.565 408.218,333.078 408.855,333.593 409.493,334.11 410.131,334.63 410.769,335.153 411.406,335.678 412.044,336.205 412.682,336.735 413.319,337.268 413.957,337.802 414.595,338.339 415.232,338.879 415.87,339.42 416.508,339.965 417.146,340.512 417.783,341.061 418.421,341.612 419.059,342.166 419.696,342.722 420.334,343.28 420.972,343.84 421.61,344.403 422.248,344.968 422.885,345.536 423.523,346.105 424.161,346.678 424.798,347.252 425.436,347.829 426.074,348.407 426.711,348.988 427.349,349.571 427.987,350.157 428.625,350.744 429.262,351.334 429.9,351.926 430.538,352.52 431.175,353.116 431.813,353.715 432.451,354.315 433.088,354.918 433.726,355.523 434.364,356.13 435.001,356.739 435.639,357.35 436.277,357.963 436.915,358.579 437.553,359.196 438.19,359.815 438.828,360.437 439.466,361.061 440.104,361.686 440.741,362.314 441.379,362.943 442.017,363.575 442.654,364.209 443.292,364.845 443.93,365.482 444.567,366.122 445.205,366.764 445.843,367.407 446.48,368.053 447.118,368.701 447.756,369.35 448.394,370.001 449.031,370.655 449.669,371.31 450.307,371.967 450.944,372.626 451.582,373.288 452.22,373.95 452.857,374.615 453.495,375.282 454.133,375.95 454.771,376.621 455.409,377.293 456.046,377.967 456.684,378.643 457.322,379.321 457.959,380.001 458.597,380.682 459.235,381.366 459.873,382.051 460.51,382.738 461.148,383.426 461.786,384.117 462.423,384.809 462.444,384.832" fill="none" stroke-dasharray="4,1,2,1,4,1,2,1" stroke="#0000ff" stroke-linejoin="round" stroke-linecap="butt"/>
   <text font-family="FreeSans" font-weight="normal" font-size="10" font-style="normal" xml:space="preserve" transform="translate(170.537,62.872) rotate(-0,-0,-7)">
    <tspan fill="rgb(0,0,0)" y="-2" x="0 5 10 15 21 27 33 39 44 50 53 58 60 62 68 71 73 78 81 86 91 94 99 104 107 110 ">secp256k1 eliptic curve: y</tspan>
    <tspan fill="rgb(0,0,0)" y="-7" font-size="8" x="115 ">2</tspan>
    <tspan fill="rgb(0,0,0)" y="-2" x="119 125 128 ">= x</tspan>
    <tspan fill="rgb(0,0,0)" y="-7" font-size="8" x="133 ">3</tspan>
    <tspan fill="rgb(0,0,0)" y="-2" x="137 143 ">+7</tspan>
   </text>
  </g>
 </g>
</svg>
