<?xml version="1.0" encoding="UTF-8" standalone="no"?>
<svg
   xmlns:dc="http://purl.org/dc/elements/1.1/"
   xmlns:cc="http://creativecommons.org/ns#"
   xmlns:rdf="http://www.w3.org/1999/02/22-rdf-syntax-ns#"
   xmlns:svg="http://www.w3.org/2000/svg"
   xmlns="http://www.w3.org/2000/svg"
   xmlns:sodipodi="http://sodipodi.sourceforge.net/DTD/sodipodi-0.dtd"
   xmlns:inkscape="http://www.inkscape.org/namespaces/inkscape"
   width="512.3241"
   height="498.24316"
   version="1.1"
   id="svg32"
   sodipodi:docname="aaron-dollar.svg"
   inkscape:version="0.92.3 (2405546, 2018-03-11)">
  <metadata
     id="metadata38">
    <rdf:RDF>
      <cc:Work
         rdf:about="">
        <dc:format>image/svg+xml</dc:format>
        <dc:type
           rdf:resource="http://purl.org/dc/dcmitype/StillImage" />
        <dc:title></dc:title>
      </cc:Work>
    </rdf:RDF>
  </metadata>
  <defs
     id="defs36" />
  <sodipodi:namedview
     pagecolor="#ffffff"
     bordercolor="#666666"
     borderopacity="1"
     objecttolerance="10"
     gridtolerance="10"
     guidetolerance="10"
     inkscape:pageopacity="0"
     inkscape:pageshadow="2"
     inkscape:window-width="1036"
     inkscape:window-height="778"
     id="namedview34"
     showgrid="false"
     inkscape:zoom="0.93164063"
     inkscape:cx="256.18863"
     inkscape:cy="249.24314"
     inkscape:window-x="241"
     inkscape:window-y="111"
     inkscape:window-maximized="0"
     inkscape:current-layer="svg32"
     inkscape:pagecheckerboard="false"
     fit-margin-top="0"
     fit-margin-left="0"
     fit-margin-right="0"
     fit-margin-bottom="0" />
  <path
     style="fill:#bf9101;stroke:none"
     d="M 237.18863,8.2179522e-6 V 1.0000082 c 107.31,0 207.008,60.5226998 244.947,164.0000018 39.189,106.888 -2.498,228.816 -96.947,291.667 -23.061,15.345 -52.165,30.582 -80,34.333 5.183,2.023 12.733,-0.844 18,-2.13 16.114,-3.933 32,-9.566 47,-16.651 66.048,-31.197 114.096,-90.14 133.576,-160.219 31.671,-113.94 -27.067,-240.333602 -134.576,-289.691302 -43.455,-19.9505798 -85.251,-22.31379978 -132,-22.3086997820478 z"
     id="path4"
     inkscape:connector-curvature="0" />
  <path
     style="fill:#d9a509;stroke:none"
     d="m 460.18863,378.00001 h -1 c -16.181,29.064 -41.624,55.018 -69,73.656 -44.112,30.032 -97.276,47.657 -151,45.305 -149.304297,-6.538 -262.034397,-149.818 -232.8001473,-295.961 6.1887503,-30.938 18.6618503,-60.744 36.1334503,-87 21.5114,-32.326302 49.8616,-59.458202 83.666697,-78.719102 39.227,-22.3502 82.964,-33.3531698 128,-33.2808998 37.548,0.06024 77.119,11.5233998 110,29.3086998 14.483,7.8337 27.112,18.0423 41,26.6913 -5.093,-10.0289 -21.464,-17.6754 -31,-23.1497 -32.51,-18.6633 -68.579,-30.1959998 -106,-32.9390498 C 130.53463,-8.1791918 6.3267527,98.722008 0.22798463,238.00001 c -6.33722193,144.723 120.34664537,273.358 266.96064537,259.17 59.648,-5.772 115.152,-29.269 158,-72.17 11.874,-11.889 31.034,-30.123 35,-47 z"
     id="path6"
     inkscape:connector-curvature="0" />
  <path
     style="fill:#e9c34f;stroke:none"
     d="m 234.18863,2.4243882 c -58.505,7.6817198 -110.854,25.5419198 -154.999997,66.6651198 -21.5689,20.0919 -39.1125,44.577502 -52.2469,70.910502 -69.408,139.156 11.5527,311.951 162.246897,349.625 30.149,7.537 61.254,9.136 92,5.093 117.28,-15.421 209.784,-116.517 214.961,-234.718 5.224,-119.3 -80.82,-229.367602 -197.961,-252.8002018 -20.414,-4.0835 -43.188,-7.50805998 -64,-4.77542 z"
     id="path8"
     inkscape:connector-curvature="0" />
  <path
     style="fill:#d7a301;stroke:none"
     d="m 233.18863,36.424408 c -46.039,6.0449 -88.449,19.5675 -124.576,50.2893 -19.394797,16.494302 -34.949497,37.173302 -47.284297,59.286302 -48.0529,86.146 -28.2279,202.07 47.284297,266.286 45.179,38.42 106.866,56.473 165.576,49.429 32.248,-3.87 63.654,-14.803 91,-32.407 103.021,-66.322 129.485,-216.742 51.951,-313.112 -27.269,-33.892802 -64.506,-58.474302 -105.951,-71.220702 -24.218,-7.4483 -52.678,-11.8756 -78,-8.5509 z"
     id="path10"
     inkscape:connector-curvature="0" />
  <path
     style="fill:#e9c34f;stroke:none"
     d="m 240.18863,44.424408 c -41.487,5.4499 -79.637,16.974 -113.41,42.9167 -20.111,15.447902 -36.804197,35.197902 -50.164797,56.658902 -53.3936,85.765 -31.9572,201.528 45.998797,265.28 45.232,36.99 105.091,52.585 162.576,44.435 28.508,-4.042 55.537,-14.98 80,-29.919 19.527,-11.924 36.676,-27.871 50.789,-45.796 70.25,-89.223 53.96,-226.309 -38.789,-293.574802 -19.621,-14.2302 -41.673,-25.4369 -65,-32.1343 -22.519,-6.4653 -48.554,-10.9464 -72,-7.8665 z"
     id="path12"
     inkscape:connector-curvature="0" />
  <path
     style="fill:#d9a505;stroke:none"
     d="m 460.18863,121.00001 c 8.459,23.238 21.704,43.583 28.116,68 12.344,47.008 9.435,96.221 -6.46,142 -5.701,16.418 -15.795,30.899 -21.656,47 12.028,-10.304 18.751,-33.307 23.667,-48 16.788,-50.183 18.124,-105.497 1.663,-156 -5.258,-16.134 -12.101,-41.668 -25.33,-53 z"
     id="path14"
     inkscape:connector-curvature="0" />
  <text
     xml:space="preserve"
     style="font-style:normal;font-weight:normal;font-size:15px;line-height:696.99997902%;font-family:sans-serif;letter-spacing:8.14000034px;word-spacing:-0.55000013px;fill:#d7a301;fill-opacity:1;stroke:#bf8f01;stroke-width:3;stroke-linecap:butt;stroke-linejoin:miter;stroke-miterlimit:4;stroke-dasharray:none;stroke-opacity:1"
     x="118.72439"
     y="398.25577"
     id="text4550"><tspan
       sodipodi:role="line"
       id="tspan4548"
       x="118.72439"
       y="398.25577"
       style="font-style:normal;font-variant:normal;font-weight:normal;font-stretch:normal;font-size:466.66665649px;font-family:'Monster AG';-inkscape-font-specification:'Monster AG';fill:#d7a301;fill-opacity:1;stroke:#bf8f01;stroke-width:3;stroke-miterlimit:4;stroke-dasharray:none;stroke-opacity:1">A</tspan></text>
</svg>
