<?xml version="1.0" encoding="UTF-8" standalone="no"?>
<!DOCTYPE svg PUBLIC "-//W3C//DTD SVG 1.1//EN"
 "http://www.w3.org/Graphics/SVG/1.1/DTD/svg11.dtd">
<!-- Generated by graphviz version 2.43.0 (0)
 -->
<!-- Title: A Pages: 1 -->
<svg width="245pt" height="455pt"
 viewBox="0.00 0.00 245.00 455.00" xmlns="http://www.w3.org/2000/svg" xmlns:xlink="http://www.w3.org/1999/xlink">
<g id="graph0" class="graph" transform="scale(1 1) rotate(0) translate(4 451)">
<title>A</title>
<polygon fill="white" stroke="transparent" points="-4,4 -4,-451 241,-451 241,4 -4,4"/>
<!-- block_0 -->
<g id="node1" class="node">
<title>block_0</title>
<polygon fill="none" stroke="black" points="6.5,-393.5 6.5,-446.5 230.5,-446.5 230.5,-393.5 6.5,-393.5"/>
<text text-anchor="start" x="14.5" y="-431.3" font-family="Helvetica,sans-Serif" font-size="14.00">Block 0; genesis block</text>
<text text-anchor="start" x="14.5" y="-416.3" font-family="Helvetica,sans-Serif" font-size="14.00">self_hash: 72b3f1b60a8ce26f</text>
<text text-anchor="start" x="14.5" y="-401.3" font-family="Helvetica,sans-Serif" font-size="14.00">&quot;pithy genesis block quote&quot;</text>
</g>
<!-- block_1 -->
<g id="node2" class="node">
<title>block_1</title>
<polygon fill="none" stroke="black" points="3.5,-272.5 3.5,-356.5 233.5,-356.5 233.5,-272.5 3.5,-272.5"/>
<text text-anchor="start" x="11.5" y="-341.3" font-family="Helvetica,sans-Serif" font-size="14.00">Block 1; miner: alice</text>
<text text-anchor="start" x="11.5" y="-326.3" font-family="Helvetica,sans-Serif" font-size="14.00">prev_hash: 72b3f1b60a8ce26f</text>
<text text-anchor="start" x="11.5" y="-311.3" font-family="Helvetica,sans-Serif" font-size="14.00">self_hash: 4ff763ae46a2a6c1</text>
<text text-anchor="start" x="11.5" y="-280.3" font-family="Helvetica,sans-Serif" font-size="14.00">TXNs: none</text>
</g>
<!-- block_1&#45;&gt;block_0 -->
<g id="edge1" class="edge">
<title>block_1&#45;&gt;block_0</title>
<path fill="none" stroke="black" d="M118.5,-356.7C118.5,-365.52 118.5,-374.76 118.5,-383.35"/>
<polygon fill="black" stroke="black" points="115,-383.43 118.5,-393.43 122,-383.43 115,-383.43"/>
</g>
<!-- block_2 -->
<g id="node3" class="node">
<title>block_2</title>
<polygon fill="none" stroke="black" points="3,-136.5 3,-235.5 234,-235.5 234,-136.5 3,-136.5"/>
<text text-anchor="start" x="11" y="-220.3" font-family="Helvetica,sans-Serif" font-size="14.00">Block 2; miner: bob</text>
<text text-anchor="start" x="11" y="-205.3" font-family="Helvetica,sans-Serif" font-size="14.00">prev_hash: 4ff763ae46a2a6c1</text>
<text text-anchor="start" x="11" y="-190.3" font-family="Helvetica,sans-Serif" font-size="14.00">self_hash: 9c085ae165831e93</text>
<text text-anchor="start" x="11" y="-159.3" font-family="Helvetica,sans-Serif" font-size="14.00">TXN 0: alice send 3 &#45;&gt; charlie</text>
<text text-anchor="start" x="11" y="-144.3" font-family="Helvetica,sans-Serif" font-size="14.00">TXN 1: alice send 2 &#45;&gt; bob</text>
</g>
<!-- block_2&#45;&gt;block_1 -->
<g id="edge2" class="edge">
<title>block_2&#45;&gt;block_1</title>
<path fill="none" stroke="black" d="M118.5,-235.55C118.5,-244.26 118.5,-253.37 118.5,-262.16"/>
<polygon fill="black" stroke="black" points="115,-262.29 118.5,-272.29 122,-262.29 115,-262.29"/>
</g>
<!-- block_3 -->
<g id="node4" class="node">
<title>block_3</title>
<polygon fill="none" stroke="black" points="0,-0.5 0,-99.5 237,-99.5 237,-0.5 0,-0.5"/>
<text text-anchor="start" x="8" y="-84.3" font-family="Helvetica,sans-Serif" font-size="14.00">Block 3; miner: alice</text>
<text text-anchor="start" x="8" y="-69.3" font-family="Helvetica,sans-Serif" font-size="14.00">prev_hash: 9c085ae165831e93</text>
<text text-anchor="start" x="8" y="-54.3" font-family="Helvetica,sans-Serif" font-size="14.00">self_hash: 19dae65f10b68668</text>
<text text-anchor="start" x="8" y="-23.3" font-family="Helvetica,sans-Serif" font-size="14.00">TXN 0: alice send 1 &#45;&gt; bob</text>
<text text-anchor="start" x="8" y="-8.3" font-family="Helvetica,sans-Serif" font-size="14.00">TXN 1: bob send 3 &#45;&gt; charlie</text>
</g>
<!-- block_3&#45;&gt;block_2 -->
<g id="edge3" class="edge">
<title>block_3&#45;&gt;block_2</title>
<path fill="none" stroke="black" d="M118.5,-99.76C118.5,-108.25 118.5,-117.18 118.5,-125.92"/>
<polygon fill="black" stroke="black" points="115,-126.06 118.5,-136.06 122,-126.06 115,-126.06"/>
</g>
</g>
</svg>
